<svg width="99" height="31" viewBox="0 0 99 31" fill="none" xmlns="http://www.w3.org/2000/svg">
<rect width="99" height="31" rx="10" fill="white"/>
<path d="M26.0684 8.85938H28.6074V15.373H28.793L34.3105 8.85938H37.4355L31.9473 15.207L37.4844 23H34.4082L30.1797 16.9258L28.6074 18.791V23H26.0684V8.85938ZM42.7676 23.2051C41.752 23.2051 40.8568 22.9772 40.082 22.5215C39.3138 22.0658 38.7214 21.4245 38.3047 20.5977C37.888 19.7708 37.6797 18.8171 37.6797 17.7363C37.6797 16.6426 37.888 15.6855 38.3047 14.8652C38.7214 14.0384 39.3138 13.3971 40.082 12.9414C40.8568 12.4857 41.752 12.2578 42.7676 12.2578C43.7897 12.2578 44.6849 12.4857 45.4531 12.9414C46.2214 13.3971 46.8105 14.0384 47.2207 14.8652C47.6309 15.6855 47.8359 16.6426 47.8359 17.7363C47.8359 18.8171 47.6309 19.7708 47.2207 20.5977C46.8105 21.4245 46.2214 22.0658 45.4531 22.5215C44.6849 22.9772 43.7897 23.2051 42.7676 23.2051ZM42.7871 21.2227C43.334 21.2227 43.7962 21.0697 44.1738 20.7637C44.5579 20.4512 44.8444 20.0312 45.0332 19.5039C45.222 18.9766 45.3164 18.3841 45.3164 17.7266C45.3164 17.0625 45.222 16.4668 45.0332 15.9395C44.8444 15.4121 44.5579 14.9954 44.1738 14.6895C43.7962 14.377 43.334 14.2207 42.7871 14.2207C42.2272 14.2207 41.752 14.377 41.3613 14.6895C40.9707 14.9954 40.6777 15.4121 40.4824 15.9395C40.2871 16.4668 40.1895 17.0625 40.1895 17.7266C40.1895 18.3906 40.2871 18.9863 40.4824 19.5137C40.6777 20.0345 40.9707 20.4512 41.3613 20.7637C41.752 21.0697 42.2272 21.2227 42.7871 21.2227ZM49.7891 12.3945H52.1914V14.1621H52.3086C52.4974 13.5501 52.8262 13.0781 53.2949 12.7461C53.7637 12.4076 54.304 12.2383 54.916 12.2383C55.2285 12.2383 55.5312 12.2611 55.8242 12.3066V14.6016C55.7201 14.556 55.5508 14.5202 55.3164 14.4941C55.082 14.4681 54.8639 14.4551 54.6621 14.4551C54.2129 14.4551 53.806 14.5527 53.4414 14.748C53.0768 14.9434 52.7904 15.2168 52.582 15.5684C52.3737 15.9134 52.2695 16.3105 52.2695 16.7598V23H49.7891V12.3945ZM57.3281 12.3945H59.7305V14.1621H59.8477C60.0365 13.5501 60.3652 13.0781 60.834 12.7461C61.3027 12.4076 61.8431 12.2383 62.4551 12.2383C62.7676 12.2383 63.0703 12.2611 63.3633 12.3066V14.6016C63.2591 14.556 63.0898 14.5202 62.8555 14.4941C62.6211 14.4681 62.403 14.4551 62.2012 14.4551C61.752 14.4551 61.3451 14.5527 60.9805 14.748C60.6159 14.9434 60.3294 15.2168 60.1211 15.5684C59.9128 15.9134 59.8086 16.3105 59.8086 16.7598V23H57.3281V12.3945ZM69.2031 23.2051C68.1549 23.2051 67.2435 22.9837 66.4688 22.541C65.694 22.0983 65.0951 21.4668 64.6719 20.6465C64.2552 19.8262 64.0469 18.8659 64.0469 17.7656C64.0469 16.6784 64.2552 15.7181 64.6719 14.8848C65.0951 14.0449 65.6842 13.3971 66.4395 12.9414C67.1947 12.4857 68.0736 12.2578 69.0762 12.2578C69.9811 12.2578 70.7982 12.4499 71.5273 12.834C72.2565 13.2181 72.8359 13.8138 73.2656 14.6211C73.6953 15.4219 73.9102 16.4147 73.9102 17.5996V18.3809H65.2285V16.6914H71.5273C71.5273 16.2096 71.4264 15.7799 71.2246 15.4023C71.0228 15.0247 70.7363 14.7285 70.3652 14.5137C70.0007 14.2988 69.5807 14.1914 69.1055 14.1914C68.5977 14.1914 68.1484 14.3118 67.7578 14.5527C67.3672 14.7936 67.0612 15.1191 66.8398 15.5293C66.625 15.9329 66.5143 16.3757 66.5078 16.8574V18.3027C66.5078 18.9212 66.6185 19.4551 66.8398 19.9043C67.0677 20.347 67.3867 20.6855 67.7969 20.9199C68.207 21.1543 68.6855 21.2715 69.2324 21.2715C69.584 21.2715 69.8997 21.2227 70.1797 21.125C70.4661 21.0273 70.7103 20.9004 70.9121 20.7441C71.1139 20.5814 71.2669 20.3893 71.3711 20.168H73.8125C73.6628 20.7734 73.3796 21.3073 72.9629 21.7695C72.5527 22.2253 72.0254 22.5801 71.3809 22.834C70.7363 23.0814 70.0104 23.2051 69.2031 23.2051ZM80.4824 23.2051C79.4473 23.2051 78.5423 22.974 77.7676 22.5117C76.9993 22.0495 76.4102 21.4049 76 20.5781C75.5964 19.7513 75.3945 18.804 75.3945 17.7363C75.3945 16.6621 75.6029 15.7116 76.0195 14.8848C76.4362 14.0514 77.0254 13.4069 77.7871 12.9512C78.5488 12.4889 79.4408 12.2578 80.4629 12.2578C81.3158 12.2578 82.0775 12.4141 82.748 12.7266C83.4186 13.0326 83.9492 13.4753 84.3398 14.0547C84.737 14.6276 84.9616 15.2949 85.0137 16.0566H82.6406C82.5755 15.7051 82.4486 15.3958 82.2598 15.1289C82.071 14.8555 81.8301 14.6406 81.5371 14.4844C81.2441 14.3281 80.8991 14.25 80.502 14.25C79.9876 14.25 79.5352 14.39 79.1445 14.6699C78.7539 14.9434 78.4479 15.3372 78.2266 15.8516C78.0117 16.3659 77.9043 16.9779 77.9043 17.6875C77.9043 18.4036 78.0117 19.0254 78.2266 19.5527C78.4414 20.0736 78.7441 20.474 79.1348 20.7539C79.5254 21.0339 79.9811 21.1738 80.502 21.1738C80.873 21.1738 81.2051 21.1055 81.498 20.9688C81.7975 20.8255 82.0449 20.6204 82.2402 20.3535C82.4355 20.0801 82.569 19.7578 82.6406 19.3867H85.0137C84.9551 20.1354 84.7337 20.7962 84.3496 21.3691C83.9655 21.9421 83.4414 22.3913 82.7773 22.7168C82.1198 23.0423 81.3548 23.2051 80.4824 23.2051ZM92.1621 14.3086H86.0879V12.3945H92.1621V14.3086ZM90.082 9.85547V19.8164C90.082 20.1354 90.1309 20.3861 90.2285 20.5684C90.3262 20.7441 90.4564 20.8678 90.6191 20.9395C90.7884 21.0046 90.9902 21.0404 91.2246 21.0469C91.5111 21.0534 91.8724 21.0371 92.3086 20.998V23.0391C91.9049 23.1107 91.4362 23.1465 90.9023 23.1465C90.2643 23.1465 89.6947 23.0391 89.1934 22.8242C88.6921 22.6029 88.2982 22.2741 88.0117 21.8379C87.7253 21.4017 87.5853 20.8613 87.5918 20.2168V9.85547H90.082Z" fill="black"/>
<rect x="5.45" y="5.5" width="14.84" height="21" fill="url(#paint0_linear_2_5)"/>
<rect x="5.45" y="5.5" width="14.84" height="21" stroke="black"/>
<rect x="8.45" y="5.5" width="13" height="21" fill="white"/>
<rect x="8.45" y="5.5" width="13" height="21" stroke="black"/>
<path d="M9.67266 12.9297H10.7469V16.3037H10.8348L13.7889 12.9297H15.1463L12.2898 16.1133L15.1561 20H13.8523L11.577 16.8457L10.7469 17.8076V20H9.67266V12.9297ZM17.7879 20.1074C17.2931 20.1074 16.8569 19.9935 16.4793 19.7656C16.1049 19.5378 15.8152 19.2171 15.6102 18.8037C15.4051 18.3903 15.3025 17.9134 15.3025 17.373C15.3025 16.8262 15.4051 16.346 15.6102 15.9326C15.8152 15.5192 16.1049 15.1986 16.4793 14.9707C16.8569 14.7428 17.2931 14.6289 17.7879 14.6289C18.2794 14.6289 18.7124 14.7428 19.0867 14.9707C19.4611 15.1986 19.7492 15.5192 19.951 15.9326C20.1528 16.346 20.2537 16.8262 20.2537 17.373C20.2537 17.9134 20.1528 18.3903 19.951 18.8037C19.7492 19.2171 19.4611 19.5378 19.0867 19.7656C18.7124 19.9935 18.2794 20.1074 17.7879 20.1074ZM17.7879 19.2383C18.1004 19.2383 18.3624 19.1553 18.574 18.9893C18.7856 18.82 18.9435 18.5954 19.0477 18.3154C19.1518 18.0322 19.2039 17.7165 19.2039 17.3682C19.2039 17.0199 19.1518 16.7041 19.0477 16.4209C18.9435 16.1377 18.7856 15.9131 18.574 15.7471C18.3624 15.5778 18.1004 15.4932 17.7879 15.4932C17.4754 15.4932 17.2117 15.5778 16.9969 15.7471C16.782 15.9131 16.6209 16.1377 16.5135 16.4209C16.4061 16.7041 16.3523 17.0199 16.3523 17.3682C16.3523 17.7165 16.4061 18.0322 16.5135 18.3154C16.6209 18.5954 16.782 18.82 16.9969 18.9893C17.2117 19.1553 17.4754 19.2383 17.7879 19.2383Z" fill="black"/>
<path d="M12.95 8.375L14.4083 6.91667L17.325 9.83333L23.1583 4L24.6167 5.45833L17.325 12.75L12.95 8.375Z" fill="url(#paint1_linear_2_5)" stroke="black" stroke-linecap="round" stroke-linejoin="round"/>
<defs>
<linearGradient id="paint0_linear_2_5" x1="12.87" y1="5" x2="12.87" y2="27" gradientUnits="userSpaceOnUse">
<stop stop-color="#FF0000"/>
<stop offset="1" stop-color="#0066FF"/>
</linearGradient>
<linearGradient id="paint1_linear_2_5" x1="18.7833" y1="4" x2="18.7833" y2="12.75" gradientUnits="userSpaceOnUse">
<stop stop-color="#FF0000"/>
<stop offset="1" stop-color="#0066FF"/>
</linearGradient>
</defs>
</svg>
